<svg id="SvgjsSvg1057" width="288" height="288" xmlns="http://www.w3.org/2000/svg" version="1.1" xmlns:xlink="http://www.w3.org/1999/xlink" xmlns:svgjs="http://svgjs.com/svgjs"><defs id="SvgjsDefs1058"></defs><g id="SvgjsG1059" transform="matrix(0.916700005531311,0,0,0.916700005531311,11.995199203491211,11.875129699707031)"><svg xmlns="http://www.w3.org/2000/svg" width="288" height="288" fill="none" viewBox="0 0 100 100"><path fill="#626890" stroke="url(#paint0_linear)" stroke-width="3" d="M49.2774 65.8026L21.7049 49.5765C21.5387 49.4787 21.3939 49.3481 21.2794 49.1925C21.1648 49.037 21.0829 48.8597 21.0384 48.6715C20.994 48.4833 20.988 48.288 21.0209 48.0974C21.0537 47.9068 21.1247 47.7249 21.2295 47.5626L48.802 4.61107C48.9397 4.42174 49.1199 4.26772 49.3281 4.16153C49.5363 4.05534 49.7665 4 50 4C50.2335 4 50.4637 4.05534 50.6719 4.16153C50.88 4.26772 51.0603 4.42174 51.198 4.61107L78.7705 47.5626C78.8753 47.7249 78.9463 47.9068 78.9791 48.0974C79.012 48.288 79.006 48.4833 78.9616 48.6715C78.9171 48.8597 78.8352 49.037 78.7206 49.1925C78.6061 49.3481 78.4613 49.4787 78.2951 49.5765L50.7226 65.8026C50.5035 65.9319 50.2541 66 50 66C49.7459 66 49.4965 65.9319 49.2774 65.8026Z" class="colorF2C94C svgShape"></path><path fill="#626890" stroke="url(#paint1_linear)" stroke-width="3" d="M78.6503 57.4953C78.4357 57.2462 78.1415 57.0788 77.8175 57.0217C77.4935 56.9645 77.1598 57.0211 76.8728 57.1818L50.086 72.2303H49.9149L23.1281 57.2008C22.8409 57.0384 22.5063 56.9805 22.1811 57.0371C21.856 57.0937 21.5606 57.2613 21.3453 57.5112C21.13 57.7612 21.0081 58.078 21.0004 58.4078C20.9927 58.7375 21.0997 59.0597 21.3031 59.3194L48.8693 94.4704L48.9168 94.5179L49.0499 94.6604L49.1355 94.7364L49.297 94.8409L49.3921 94.8884L49.6012 94.9644H49.6868C49.89 95.0118 50.1014 95.0118 50.3046 94.9644H50.3902L50.5993 94.8884L50.6944 94.8409L50.856 94.7364L50.9415 94.6604L51.0746 94.5179L51.1221 94.4704L78.6883 59.3194C78.8965 59.0589 79.0066 58.7338 78.9997 58.4005C78.9927 58.0672 78.8691 57.7469 78.6503 57.4953Z" class="colorF2C94C svgShape"></path><line x1="50.5" x2="50.5" y1="15.5" y2="56.5" stroke="url(#paint2_linear)" stroke-linecap="round" stroke-linejoin="round" stroke-width="3"></line><defs><linearGradient id="paint0_linear" x1="21" x2="21" y1="4" y2="66" gradientUnits="userSpaceOnUse"><stop stop-color="#000000" class="stopColor396AFC svgShape"></stop><stop offset="1" stop-color="#000000" class="stopColor2948FF svgShape"></stop></linearGradient><linearGradient id="paint1_linear" x1="21" x2="21" y1="57" y2="95" gradientUnits="userSpaceOnUse"><stop stop-color="#000000" class="stopColor396AFC svgShape"></stop><stop offset="1" stop-color="#000000" class="stopColor2948FF svgShape"></stop></linearGradient><linearGradient id="paint2_linear" x1="49" x2="48" y1="14" y2="14" gradientUnits="userSpaceOnUse"><stop stop-color="#000000" class="stopColor396AFC svgShape"></stop><stop offset="1" stop-color="#000000" class="stopColor2948FF svgShape"></stop></linearGradient></defs></svg></g></svg>